<svg width="291" height="37" viewBox="0 0 291 37" fill="none" xmlns="http://www.w3.org/2000/svg">
<path d="M66.26 8.8C66.908 8.8 67.436 8.992 67.844 9.376C68.252 9.76 68.456 10.264 68.456 10.888C68.456 11.512 68.252 12.016 67.844 12.4C67.436 12.76 66.908 12.94 66.26 12.94H60.608V31.804C60.608 32.428 60.38 32.956 59.924 33.388C59.468 33.796 58.904 34 58.232 34C57.56 34 57.008 33.796 56.576 33.388C56.144 32.956 55.928 32.428 55.928 31.804V12.94H50.276C49.628 12.94 49.1 12.748 48.692 12.364C48.284 11.98 48.08 11.476 48.08 10.852C48.08 10.252 48.284 9.76 48.692 9.376C49.124 8.992 49.652 8.8 50.276 8.8H66.26ZM79.7386 14.38C80.4586 14.38 81.0586 14.584 81.5386 14.992C82.0426 15.4 82.2946 15.88 82.2946 16.432C82.2946 17.176 82.1026 17.74 81.7186 18.124C81.3346 18.484 80.8786 18.664 80.3506 18.664C79.9906 18.664 79.5826 18.58 79.1266 18.412C79.0546 18.388 78.8866 18.34 78.6226 18.268C78.3826 18.196 78.1186 18.16 77.8306 18.16C77.2066 18.16 76.6066 18.352 76.0306 18.736C75.4546 19.12 74.9746 19.708 74.5906 20.5C74.2306 21.268 74.0506 22.192 74.0506 23.272V31.804C74.0506 32.428 73.8466 32.956 73.4386 33.388C73.0306 33.796 72.5146 34 71.8906 34C71.2666 34 70.7506 33.796 70.3426 33.388C69.9346 32.956 69.7306 32.428 69.7306 31.804V16.936C69.7306 16.312 69.9346 15.796 70.3426 15.388C70.7506 14.956 71.2666 14.74 71.8906 14.74C72.5146 14.74 73.0306 14.956 73.4386 15.388C73.8466 15.796 74.0506 16.312 74.0506 16.936V17.404C74.6026 16.42 75.3946 15.676 76.4266 15.172C77.4586 14.644 78.5626 14.38 79.7386 14.38ZM100.506 14.38C101.13 14.38 101.646 14.584 102.054 14.992C102.462 15.4 102.666 15.928 102.666 16.576V31.804C102.666 32.428 102.462 32.956 102.054 33.388C101.646 33.796 101.13 34 100.506 34C99.8821 34 99.3661 33.796 98.9581 33.388C98.5741 32.98 98.3701 32.464 98.3461 31.84C97.7461 32.536 96.9301 33.136 95.8981 33.64C94.8901 34.12 93.8221 34.36 92.6941 34.36C91.0381 34.36 89.5381 33.94 88.1941 33.1C86.8501 32.236 85.7821 31.048 84.9901 29.536C84.2221 28.024 83.8381 26.308 83.8381 24.388C83.8381 22.468 84.2221 20.752 84.9901 19.24C85.7581 17.704 86.8021 16.516 88.1221 15.676C89.4661 14.812 90.9421 14.38 92.5501 14.38C93.7021 14.38 94.7821 14.596 95.7901 15.028C96.7981 15.436 97.6501 15.964 98.3461 16.612V16.576C98.3461 15.952 98.5501 15.436 98.9581 15.028C99.3661 14.596 99.8821 14.38 100.506 14.38ZM93.2341 30.4C94.7941 30.4 96.0661 29.836 97.0501 28.708C98.0341 27.556 98.5261 26.116 98.5261 24.388C98.5261 22.66 98.0341 21.22 97.0501 20.068C96.0661 18.916 94.7941 18.34 93.2341 18.34C91.6981 18.34 90.4381 18.916 89.4541 20.068C88.4701 21.22 87.9781 22.66 87.9781 24.388C87.9781 26.116 88.4581 27.556 89.4181 28.708C90.4021 29.836 91.6741 30.4 93.2341 30.4ZM121.722 14.776C122.298 14.776 122.778 14.968 123.162 15.352C123.546 15.712 123.738 16.168 123.738 16.72C123.738 17.008 123.642 17.368 123.45 17.8L116.718 32.632C116.55 33.04 116.298 33.364 115.962 33.604C115.65 33.844 115.29 33.976 114.882 34L114.558 34.036C114.15 34.036 113.766 33.916 113.406 33.676C113.07 33.412 112.806 33.064 112.614 32.632L105.918 17.8C105.75 17.416 105.666 17.032 105.666 16.648C105.666 16.168 105.87 15.736 106.278 15.352C106.686 14.944 107.19 14.74 107.79 14.74C108.246 14.74 108.666 14.86 109.05 15.1C109.434 15.34 109.722 15.676 109.914 16.108L114.882 27.484L119.814 16.144C120.006 15.688 120.27 15.34 120.606 15.1C120.942 14.86 121.314 14.752 121.722 14.776ZM144.245 23.92C144.221 24.496 143.993 24.964 143.561 25.324C143.129 25.684 142.625 25.864 142.049 25.864H130.169C130.457 27.28 131.117 28.396 132.149 29.212C133.181 30.004 134.345 30.4 135.641 30.4C136.625 30.4 137.393 30.316 137.945 30.148C138.497 29.956 138.929 29.764 139.241 29.572C139.577 29.356 139.805 29.212 139.925 29.14C140.357 28.924 140.765 28.816 141.149 28.816C141.653 28.816 142.085 28.996 142.445 29.356C142.805 29.716 142.985 30.136 142.985 30.616C142.985 31.264 142.649 31.852 141.977 32.38C141.305 32.932 140.405 33.4 139.277 33.784C138.149 34.168 137.009 34.36 135.857 34.36C133.841 34.36 132.077 33.94 130.565 33.1C129.077 32.26 127.925 31.108 127.109 29.644C126.293 28.156 125.885 26.488 125.885 24.64C125.885 22.576 126.317 20.764 127.181 19.204C128.045 17.644 129.185 16.456 130.601 15.64C132.017 14.8 133.529 14.38 135.137 14.38C136.721 14.38 138.209 14.812 139.601 15.676C141.017 16.54 142.145 17.704 142.985 19.168C143.825 20.632 144.245 22.216 144.245 23.92ZM135.137 18.34C132.353 18.34 130.709 19.648 130.205 22.264H139.637V22.012C139.541 21.004 139.049 20.14 138.161 19.42C137.273 18.7 136.265 18.34 135.137 18.34ZM152.528 31.804C152.528 32.428 152.312 32.956 151.88 33.388C151.472 33.796 150.956 34 150.332 34C149.732 34 149.228 33.796 148.82 33.388C148.412 32.956 148.208 32.428 148.208 31.804V9.556C148.208 8.932 148.412 8.416 148.82 8.008C149.252 7.576 149.78 7.36 150.404 7.36C151.004 7.36 151.508 7.576 151.916 8.008C152.324 8.416 152.528 8.932 152.528 9.556V31.804ZM168.229 35.584C167.877 35.392 167.621 35.216 167.461 35.056C167.333 34.896 167.269 34.688 167.269 34.432C167.269 34.112 167.397 33.664 167.653 33.088C167.941 32.48 168.421 31.536 169.093 30.256C169.285 29.84 169.653 29.104 170.197 28.048C171.573 25.424 172.261 23.488 172.261 22.24C172.229 22.176 172.213 22.08 172.213 21.952C172.213 21.632 172.469 21.344 172.981 21.088C173.077 20.992 173.413 20.72 173.989 20.272C174.597 19.824 175.077 19.312 175.429 18.736C175.845 17.776 176.373 16.72 177.013 15.568C177.653 14.384 178.757 12.464 180.325 9.808C181.861 6.992 183.493 4.448 185.221 2.176C185.541 1.728 185.893 1.376 186.277 1.12C186.693 0.863998 187.045 0.735999 187.333 0.735999C188.325 0.735999 189.333 1.12 190.357 1.888C191.413 2.656 192.101 3.424 192.421 4.192C192.549 4.416 192.613 4.896 192.613 5.632C192.613 6.624 192.501 8.304 192.277 10.672C192.213 11.088 192.149 11.744 192.085 12.64C191.989 14.08 191.845 15.616 191.653 17.248C191.301 20.832 191.045 23.632 190.885 25.648C190.725 27.664 190.645 29.552 190.645 31.312C190.645 32.208 190.661 32.864 190.693 33.28V33.616L190.645 34.72C190.453 34.912 190.069 35.008 189.493 35.008C188.853 35.008 188.213 34.896 187.573 34.672C186.933 34.48 186.581 34.24 186.517 33.952C186.485 33.92 186.437 33.888 186.373 33.856C186.309 33.824 186.277 33.68 186.277 33.424L186.325 32.368L186.469 29.68L186.709 22.336L186.085 22.384C185.445 22.384 184.085 22.512 182.005 22.768C179.957 23.024 178.661 23.232 178.117 23.392C177.829 23.392 177.477 23.584 177.061 23.968C176.645 24.352 176.277 24.848 175.957 25.456C175.861 25.776 175.637 26.24 175.285 26.848C174.933 27.424 174.757 27.76 174.757 27.856C174.565 27.984 174.389 28.16 174.229 28.384C174.101 28.576 174.021 28.704 173.989 28.768C173.989 29.12 173.669 30.032 173.029 31.504C172.421 32.944 171.813 34.128 171.205 35.056L169.909 36.88L168.229 35.584ZM179.701 19.072C179.925 19.04 180.373 18.976 181.045 18.88C181.717 18.752 182.309 18.672 182.821 18.64C184.357 18.256 185.413 18.064 185.989 18.064C186.309 18.064 186.533 18.096 186.661 18.16C186.757 18.288 186.853 18.384 186.949 18.448C187.077 18.48 187.157 18.496 187.189 18.496C187.253 18.24 187.509 16.496 187.957 13.264C188.405 10.032 188.629 8.048 188.629 7.312C188.629 6.8 188.613 6.368 188.581 6.016C188.549 5.632 188.517 5.392 188.485 5.296C188.197 5.296 187.541 6.064 186.517 7.6C185.493 9.104 184.501 10.816 183.541 12.736C182.805 14.048 182.293 14.704 182.005 14.704C181.781 14.928 181.301 15.68 180.565 16.96C179.829 18.24 179.541 18.944 179.701 19.072ZM207.768 34.912C207.352 35.008 206.952 34.912 206.568 34.624C206.184 34.336 205.896 34 205.704 33.616C205.544 33.168 205.432 32.736 205.368 32.32C205.304 31.872 205.256 31.28 205.224 30.544L205.176 28.912L203.208 30.688C201.192 32.576 199.32 33.52 197.592 33.52C197.08 33.424 196.424 32.992 195.624 32.224C194.856 31.456 194.36 30.8 194.136 30.256C194.008 30 193.944 29.6 193.944 29.056C193.944 27.84 194.264 26.384 194.904 24.688C195.544 22.96 196.344 21.568 197.304 20.512C198.008 19.456 198.856 18.656 199.848 18.112C200.84 17.568 201.848 17.296 202.872 17.296C203.832 17.296 204.68 17.504 205.416 17.92C205.864 18.144 206.232 18.256 206.52 18.256C206.84 18.256 207.048 18.048 207.144 17.632C207.176 17.472 207.368 16.832 207.72 15.712L208.248 14.176C208.952 12.064 209.56 10.368 210.072 9.088C210.584 7.808 211.208 6.4 211.944 4.864C212.264 4.192 212.6 3.696 212.952 3.376C213.304 3.056 213.624 2.912 213.912 2.944C214.328 2.944 214.776 3.088 215.256 3.376C215.768 3.632 216.104 3.968 216.264 4.384C216.36 4.608 216.408 4.88 216.408 5.2C216.408 5.552 216.312 5.92 216.12 6.304C215.288 7.744 214.264 10.096 213.048 13.36C211.832 16.624 210.888 19.456 210.216 21.856C209.96 22.72 209.768 23.92 209.64 25.456C209.544 26.992 209.496 28.496 209.496 29.968C209.496 31.376 209.544 32.256 209.64 32.608C209.704 32.8 209.736 33.056 209.736 33.376C209.736 33.92 209.544 34.288 209.16 34.48C208.808 34.704 208.344 34.848 207.768 34.912ZM199.848 29.104C200.584 28.816 201.4 28.336 202.296 27.664C203.256 26.96 203.944 26.336 204.36 25.792C204.808 25.248 205.16 24.56 205.416 23.728C205.48 23.568 205.512 23.344 205.512 23.056C205.512 22.48 205.24 21.952 204.696 21.472C204.376 21.216 204.008 21.088 203.592 21.088C202.92 21.088 202.216 21.44 201.48 22.144C200.648 22.912 199.976 23.776 199.464 24.736C198.952 25.664 198.52 26.944 198.168 28.576C198.104 28.8 198.136 28.992 198.264 29.152C198.392 29.28 198.6 29.344 198.888 29.344C199.112 29.344 199.432 29.264 199.848 29.104ZM219.689 32.752C219.337 33.008 218.953 33.136 218.537 33.136C218.057 33.136 217.641 32.96 217.289 32.608C216.649 31.968 216.105 30.768 215.657 29.008C215.241 27.248 215.033 24.976 215.033 22.192C215.193 20.464 215.273 18.624 215.273 16.672C215.529 16.512 215.865 16.432 216.281 16.432C216.857 16.432 217.433 16.56 218.009 16.816C218.329 16.976 218.553 17.232 218.681 17.584C218.841 17.904 218.937 18.448 218.969 19.216C219.033 19.984 219.065 21.232 219.065 22.96L218.969 24.112L218.873 26.512C218.873 27.024 218.905 27.312 218.969 27.376C219.001 27.44 219.033 27.52 219.065 27.616C219.097 27.68 219.129 27.712 219.161 27.712C219.193 27.712 219.433 27.488 219.881 27.04L220.697 25.648C221.081 24.944 221.353 24.48 221.513 24.256C221.673 24.096 221.961 23.712 222.377 23.104L223.145 22.144C223.241 21.984 223.401 21.76 223.625 21.472C223.881 21.152 224.041 20.912 224.105 20.752C224.457 20.176 224.825 19.68 225.209 19.264C225.593 18.848 225.849 18.64 225.977 18.64C226.009 18.672 226.073 18.688 226.169 18.688C226.297 18.688 226.505 18.64 226.793 18.544C227.081 18.448 227.289 18.384 227.417 18.352C227.545 18.224 227.673 18.16 227.801 18.16C227.993 18.16 228.169 18.224 228.329 18.352C228.649 18.608 228.809 18.832 228.809 19.024C228.809 19.312 228.617 20.032 228.233 21.184C227.849 22.336 227.545 22.96 227.321 23.056L226.841 23.536C226.745 23.952 226.121 24.976 224.969 26.608C223.817 28.24 222.761 29.664 221.801 30.88C221.481 31.296 221.113 31.68 220.697 32.032C220.313 32.384 219.977 32.624 219.689 32.752ZM235.148 13.936C234.828 13.712 234.572 13.424 234.38 13.072C234.188 12.72 234.076 12.384 234.044 12.064C234.012 11.744 234.044 11.552 234.14 11.488C234.332 11.264 234.524 10.96 234.716 10.576C234.908 10.192 235.052 9.92 235.148 9.76C235.404 9.184 235.612 8.768 235.772 8.512C235.996 8.064 236.204 7.824 236.396 7.792C236.652 7.664 236.86 7.6 237.02 7.6C237.436 7.6 237.884 7.744 238.364 8.032C238.876 8.32 239.26 8.656 239.516 9.04C239.74 9.552 239.852 10 239.852 10.384C239.852 11.152 239.484 12 238.748 12.928C238.428 13.344 238.044 13.664 237.596 13.888C237.148 14.112 236.7 14.224 236.252 14.224C235.804 14.224 235.436 14.128 235.148 13.936ZM229.964 33.184C229.516 32.736 229.292 31.936 229.292 30.784C229.292 30.176 229.372 29.712 229.532 29.392C229.532 29.232 229.564 29.04 229.628 28.816C229.692 28.592 229.724 28.448 229.724 28.384C229.692 28.192 229.82 27.664 230.108 26.8C230.492 25.936 230.972 24.608 231.548 22.816C232.156 21.024 232.572 19.744 232.796 18.976C232.796 18.816 232.86 18.688 232.988 18.592C233.116 18.464 233.308 18.384 233.564 18.352C233.916 18.224 234.364 18.384 234.908 18.832C235.452 19.248 235.9 19.728 236.252 20.272C236.444 20.464 236.54 20.72 236.54 21.04C236.54 21.52 236.332 22.192 235.916 23.056C235.756 23.408 235.596 23.84 235.436 24.352C235.308 24.864 235.196 25.344 235.1 25.792C234.716 26.656 234.412 27.456 234.188 28.192C234.092 28.608 234.028 28.928 233.996 29.152C233.772 30.336 233.564 31.104 233.372 31.456C233.18 32.256 232.908 32.864 232.556 33.28C232.204 33.664 231.804 33.856 231.356 33.856C230.812 33.856 230.348 33.632 229.964 33.184ZM243.993 34.336C242.297 34.336 241.049 33.792 240.249 32.704C240.025 32.256 239.913 31.776 239.913 31.264C239.913 30.88 239.977 30.56 240.105 30.304C240.233 30.048 240.409 29.92 240.633 29.92C240.793 29.92 240.953 30 241.113 30.16C241.529 30.416 242.121 30.544 242.889 30.544C243.209 30.544 243.913 30.512 245.001 30.448C245.481 30.416 245.849 30.304 246.105 30.112C246.393 29.888 246.537 29.648 246.537 29.392C246.537 29.136 246.441 28.944 246.249 28.816H246.297C244.953 28.496 243.705 27.952 242.553 27.184C241.401 26.384 240.761 25.632 240.633 24.928C240.537 24.48 240.489 24.064 240.489 23.68C240.489 22.816 240.665 21.952 241.017 21.088C241.401 20.224 241.897 19.44 242.505 18.736C242.665 18.64 243.017 18.4 243.561 18.016C244.137 17.6 244.553 17.36 244.809 17.296V17.344C245.385 16.736 246.025 16.24 246.729 15.856C247.465 15.44 248.409 15.04 249.561 14.656L250.329 14.56L251.337 14.464C251.369 14.496 251.449 14.544 251.577 14.608C251.737 14.64 251.897 14.672 252.057 14.704C252.249 14.8 252.441 14.848 252.633 14.848C253.305 14.976 253.929 15.44 254.505 16.24C255.113 17.008 255.385 17.728 255.321 18.4C255.225 19.168 254.937 19.904 254.457 20.608C254.009 21.312 253.545 21.712 253.065 21.808C253.129 21.776 253.033 21.696 252.777 21.568C252.553 21.44 252.409 21.36 252.345 21.328L252.153 21.424C252.153 21.392 252.137 21.344 252.105 21.28C252.105 21.184 252.073 21.072 252.009 20.944C251.785 20.528 251.689 20 251.721 19.36L251.817 18.88C251.817 18.784 251.753 18.72 251.625 18.688C251.529 18.624 251.385 18.592 251.193 18.592C251.097 18.56 250.937 18.544 250.713 18.544C250.265 18.544 249.769 18.64 249.225 18.832C248.713 19.024 248.249 19.28 247.833 19.6C246.905 20.24 246.297 20.704 246.009 20.992C245.753 21.248 245.481 21.712 245.193 22.384C244.873 22.864 244.713 23.232 244.713 23.488C244.713 23.808 244.953 24.128 245.433 24.448C245.945 24.768 246.793 25.168 247.977 25.648C248.649 25.936 249.129 26.304 249.417 26.752C249.705 27.168 249.929 27.584 250.089 28C250.249 28.384 250.361 28.656 250.425 28.816C250.489 29.008 250.553 29.264 250.617 29.584C250.681 29.904 250.697 30.08 250.665 30.112L250.761 30.304V30.256C250.857 30.448 250.905 30.64 250.905 30.832C250.905 31.472 250.489 32.128 249.657 32.8C248.825 33.472 247.833 33.92 246.681 34.144H246.729C245.865 34.272 244.953 34.336 243.993 34.336ZM260.583 33.616C260.423 33.648 260.215 33.664 259.959 33.664C259.543 33.664 259.207 33.6 258.951 33.472C258.695 33.312 258.391 33.056 258.039 32.704C257.303 32.352 256.663 31.76 256.119 30.928C255.575 30.096 255.335 29.44 255.399 28.96C255.559 27.424 255.991 25.76 256.695 23.968C257.399 22.144 258.311 20.512 259.431 19.072C260.583 17.6 261.799 16.576 263.079 16C263.655 15.776 264.183 15.664 264.663 15.664C265.655 15.664 266.311 15.984 266.631 16.624C266.855 17.072 266.967 17.408 266.967 17.632C266.967 18.016 266.743 18.272 266.295 18.4C266.199 18.4 266.087 18.448 265.959 18.544C265.831 18.64 265.767 18.736 265.767 18.832C265.799 18.864 265.943 18.88 266.199 18.88C266.743 18.88 267.415 18.8 268.215 18.64C269.015 18.48 269.527 18.304 269.751 18.112C269.943 18.016 270.103 17.968 270.231 17.968L270.903 18.064C271.447 18.224 271.719 18.416 271.719 18.64C271.719 18.8 271.767 19.008 271.863 19.264C271.991 19.52 272.103 19.648 272.199 19.648C272.359 19.648 272.439 19.76 272.439 19.984C272.439 20.176 272.327 20.432 272.103 20.752C271.911 21.04 271.623 21.328 271.239 21.616C271.079 21.712 270.839 21.856 270.519 22.048C270.231 22.24 270.055 22.4 269.991 22.528C269.959 22.656 269.975 22.832 270.039 23.056C270.167 23.312 270.231 23.632 270.231 24.016C270.231 25.104 269.703 26.384 268.647 27.856C267.591 29.296 266.295 30.576 264.759 31.696C263.255 32.816 261.863 33.456 260.583 33.616ZM260.727 29.584C260.919 29.584 261.399 29.392 262.167 29.008C262.583 28.592 262.919 28.336 263.175 28.24C263.271 28.24 263.351 28.16 263.415 28C263.511 27.808 263.655 27.536 263.847 27.184C264.071 26.8 264.423 26.304 264.903 25.696C265.415 25.12 265.767 24.656 265.959 24.304C266.183 23.952 266.295 23.6 266.295 23.248C266.295 23.12 266.263 22.896 266.199 22.576C266.167 22.48 266.055 22.4 265.863 22.336C265.703 22.24 265.543 22.16 265.383 22.096C265.223 22.096 265.063 22.144 264.903 22.24C264.743 22.304 264.631 22.336 264.567 22.336C264.407 22.336 264.231 22.256 264.039 22.096L263.271 21.136L262.455 21.952C261.719 22.688 261.095 23.68 260.583 24.928C260.103 26.176 259.815 27.312 259.719 28.336C259.687 28.784 259.751 29.104 259.911 29.296C260.103 29.456 260.375 29.552 260.727 29.584ZM274.325 32.704C273.877 32.352 273.525 32.016 273.269 31.696C273.013 31.376 272.933 30.928 273.029 30.352C273.125 29.264 273.365 28 273.749 26.56L273.989 25.6C274.085 24.736 274.581 23.04 275.477 20.512C276.405 17.952 277.173 16.224 277.781 15.328C278.101 15.008 278.645 14.848 279.413 14.848C280.053 14.848 280.501 14.976 280.757 15.232C281.013 15.424 281.141 15.744 281.141 16.192C281.141 16.928 280.677 18.224 279.749 20.08L279.269 21.088C279.045 21.504 278.853 21.888 278.693 22.24C278.565 22.592 278.581 22.752 278.741 22.72C279.093 22.112 279.941 21.28 281.285 20.224C282.661 19.168 283.605 18.512 284.117 18.256C284.341 18.128 284.629 18 284.981 17.872C285.333 17.744 285.573 17.648 285.701 17.584C286.277 17.296 286.933 17.152 287.669 17.152C288.181 17.152 288.613 17.232 288.965 17.392C289.349 17.52 289.605 17.728 289.733 18.016C289.765 18.24 289.845 18.416 289.973 18.544C290.133 18.672 290.245 18.752 290.309 18.784C290.405 18.784 290.469 18.832 290.501 18.928C290.533 18.992 290.549 19.04 290.549 19.072C290.549 19.328 290.325 19.664 289.877 20.08C289.429 20.464 288.965 20.672 288.485 20.704C288.133 20.736 287.765 20.816 287.381 20.944C286.997 21.072 286.613 21.232 286.229 21.424L284.981 22.144C283.893 22.688 282.965 23.232 282.197 23.776C281.461 24.288 280.709 24.96 279.941 25.792C279.781 25.952 279.541 26.176 279.221 26.464C278.933 26.752 278.677 27.088 278.453 27.472C278.229 27.696 277.989 28.288 277.733 29.248C277.509 30.176 277.397 30.752 277.397 30.976C277.365 31.072 277.301 31.264 277.205 31.552C277.109 31.84 276.965 32.096 276.773 32.32C276.485 32.672 276.245 32.928 276.053 33.088C275.861 33.248 275.653 33.328 275.429 33.328C275.109 33.328 274.741 33.12 274.325 32.704Z" fill="white"/>
<path d="M25.9 7.64706H29.6V34H7.4V7.64706H11.1V5.76471C11.1 4.76624 11.4898 3.80868 12.1837 3.10266C12.8776 2.39664 13.8187 2 14.8 2H22.2C23.1813 2 24.1224 2.39664 24.8163 3.10266C25.5102 3.80868 25.9 4.76624 25.9 5.76471V7.64706ZM31.45 7.64706H33.3C34.2813 7.64706 35.2224 8.0437 35.9163 8.74972C36.6102 9.45573 37 10.4133 37 11.4118V30.2353C37 31.2338 36.6102 32.1913 35.9163 32.8973C35.2224 33.6034 34.2813 34 33.3 34H31.45V7.64706ZM5.55 7.64706V34H3.7C2.7187 34 1.77759 33.6034 1.0837 32.8973C0.38982 32.1913 0 31.2338 0 30.2353V11.4118C0 9.34118 1.665 7.64706 3.7 7.64706H5.55ZM14.8 5.76471V7.64706H22.2V5.76471H14.8Z" fill="white"/>
</svg>
